<svg width="204" height="34" viewBox="0 0 204 34" fill="none" xmlns="http://www.w3.org/2000/svg">
<path d="M91.264 31.2359C89.4445 31.2359 87.828 31.1314 86.4142 30.9225C85.0128 30.7135 83.7404 30.3692 82.5971 29.8898C81.4538 29.4104 80.6056 28.7834 80.0524 28.0089C79.4869 27.2221 79.1427 26.2571 79.0197 25.1138C78.8968 23.9582 79.1365 22.6121 79.7389 21.0754H88.6086C88.4611 21.8376 88.7868 22.4031 89.5859 22.7719C90.3973 23.1284 91.4484 23.3067 92.7392 23.3067C95.9109 23.3067 97.4967 22.7781 97.4967 21.7208V21.684C97.4967 21.561 97.4844 21.4565 97.4598 21.3705C97.4353 21.2844 97.3554 21.1553 97.2201 20.9832C97.0972 20.7988 96.8636 20.6452 96.5194 20.5222C96.1875 20.387 95.7449 20.2948 95.1917 20.2456L93.0342 20.0243C86.3097 19.4957 82.9475 17.203 82.9475 13.1462C82.9475 9.87614 84.3428 7.3314 87.1334 5.51198C89.9363 3.68026 93.6673 2.7644 98.3265 2.7644C101.265 2.7644 103.742 3.15779 105.758 3.94457C107.774 4.71906 109.139 5.8562 109.852 7.35599C110.577 8.85579 110.411 10.6875 109.354 12.8511H100.779C100.828 12.7036 100.828 12.55 100.779 12.3901C100.73 12.218 100.613 12.0275 100.429 11.8185C100.257 11.5972 100.029 11.4067 99.7464 11.2469C99.476 11.087 99.0887 10.9518 98.5847 10.8412C98.0807 10.7182 97.5029 10.6568 96.8513 10.6568C95.6466 10.6568 94.6877 10.8166 93.9747 11.1362C93.2739 11.4435 92.9236 11.8615 92.9236 12.3901C92.9236 13.0786 93.5382 13.4965 94.7676 13.6441L96.169 13.8285C96.501 13.8776 97.0357 13.9576 97.7733 14.0682C98.5109 14.1665 99.1379 14.2526 99.6542 14.3264C100.171 14.4001 100.804 14.5292 101.554 14.7136C102.316 14.8857 102.949 15.0701 103.453 15.2668C103.957 15.4635 104.498 15.7339 105.076 16.0782C105.653 16.4224 106.127 16.8035 106.495 17.2215C106.864 17.6271 107.159 18.1373 107.381 18.752C107.614 19.3544 107.731 20.0182 107.731 20.7435C107.731 22.7105 107.295 24.3947 106.422 25.7961C105.549 27.1853 104.326 28.2671 102.752 29.0416C101.179 29.8038 99.4514 30.357 97.5705 30.7012C95.7019 31.0577 93.5997 31.2359 91.264 31.2359Z" fill="url(#paint0_linear_5671_7314)"/>
<path d="M60.7736 31.07C57.0856 31.07 54.2028 30.0988 52.1252 28.1564C50.0476 26.2141 49.0088 23.405 49.0088 19.7293C49.0088 17.5288 49.4821 15.4082 50.4287 13.3675C51.3753 11.3145 52.6723 9.51963 54.3196 7.98296C55.9669 6.44628 57.9892 5.21079 60.3864 4.27649C62.7836 3.34219 65.3591 2.87504 68.1128 2.87504C72.145 2.87504 75.3167 3.95686 77.6279 6.1205C79.9513 8.27185 80.861 10.7981 80.357 13.6994H69.9383C69.6064 13.1462 69.1085 12.6913 68.4447 12.3348C67.7809 11.966 67.0064 11.7816 66.1212 11.7816C64.1297 11.7816 62.5008 12.427 61.2346 13.7178C59.9684 15.0086 59.3353 16.447 59.3353 18.0328C59.3353 19.3728 59.7656 20.4362 60.6261 21.223C61.4989 21.9974 62.4701 22.3847 63.5396 22.3847C66.6499 22.3847 68.4017 21.5672 68.7951 19.9321H63.429L64.9964 15.1193H80.2279L75.3782 30.1848H70.4731L71.4136 26.1833C70.467 27.6708 69.0778 28.8572 67.2461 29.7423C65.4267 30.6274 63.2692 31.07 60.7736 31.07Z" fill="url(#paint1_linear_5671_7314)"/>
<path d="M32.9736 30.0496H43.1993L52.0306 3.74173H41.619L32.9736 30.0496Z" fill="url(#paint2_linear_5671_7314)"/>
<path d="M201.627 3.77893L198.824 12.372H189.806L183.979 30.222H173.653L179.48 12.372H170.223L172.989 3.77893H201.627Z" fill="white"/>
<path d="M168.37 11.9663H153.71L153.139 13.755H167.817L165.696 20.1537H151.092L150.502 22.0162H165.069L162.396 30.222H137.501L146.039 3.77893H171.044L168.37 11.9663Z" fill="white"/>
<path d="M35.7002 9.5476C35.7002 10.9122 35.2884 12.1784 34.4647 13.3463C33.6533 14.5018 32.381 15.3931 30.6476 16.0201L30.3894 16.5917C31.3729 17.2801 32.0245 17.8334 32.3441 18.2513C33.0694 19.161 33.432 20.3596 33.432 21.8471C33.432 27.4898 28.7237 30.3112 19.3069 30.3112H2.37891L10.9167 3.86804H27.2362C32.8788 3.86804 35.7002 5.76123 35.7002 9.5476ZM27.8631 12.8484V12.8115C27.8631 12.664 27.8508 12.5349 27.8263 12.4243C27.814 12.3013 27.7033 12.1661 27.4943 12.0186C27.2853 11.8588 26.978 11.7788 26.5723 11.7788H16.3749L15.5267 14.4158H25.9269C26.5662 14.4158 27.0456 14.2437 27.3653 13.8995C27.6972 13.5552 27.8631 13.2049 27.8631 12.8484ZM25.9454 20.9067C25.8224 20.1691 25.386 19.7696 24.6361 19.7081H13.8302L12.9451 22.4188H23.9907C24.5808 22.4188 25.0541 22.2774 25.4106 21.9947C25.7671 21.7119 25.9454 21.3493 25.9454 20.9067Z" fill="url(#paint3_linear_5671_7314)"/>
<path d="M19.4108 3.85657H10.8072L2.37354 30.3272H17.0165C13.8101 28.0896 14.354 24.781 17.7294 22.3879H12.96L13.8101 19.7055H21.3782C18.4624 18.0532 19.0102 15.823 19.7086 14.2866H15.5852L16.4593 11.7811H25.251C19.7086 10.332 18.2657 6.98163 19.4108 3.85657Z" fill="url(#paint4_linear_5671_7314)"/>
<path d="M140.327 9.42699C140.327 10.7916 139.915 12.0578 139.091 13.2257C138.28 14.3812 137.007 15.2725 135.274 15.8995L135.016 16.4711C135.999 17.1595 136.651 17.7127 136.971 18.1307C137.696 19.0404 138.059 20.239 138.059 21.7265C138.059 27.3692 133.35 30.1906 123.933 30.1906H107.005L115.543 3.74744H131.863C137.505 3.74744 140.327 5.64062 140.327 9.42699ZM132.49 12.7278V12.6909C132.49 12.5434 132.477 12.4143 132.453 12.3036C132.44 12.1807 132.33 12.0455 132.121 11.898C131.912 11.7382 131.604 11.6582 131.199 11.6582H121.001L120.153 14.2952H130.553C131.193 14.2952 131.672 14.1231 131.992 13.7789C132.324 13.4346 132.49 13.0843 132.49 12.7278ZM130.572 20.7861C130.449 20.0485 130.012 19.649 129.263 19.5875H118.457L117.572 22.2982H128.617C129.207 22.2982 129.681 22.1568 130.037 21.8741C130.394 21.5913 130.572 21.2287 130.572 20.7861Z" fill="white"/>
<defs>
<linearGradient id="paint0_linear_5671_7314" x1="35.807" y1="-0.110657" x2="67.9179" y2="67.4347" gradientUnits="userSpaceOnUse">
<stop stop-color="#F9820F"/>
<stop offset="0.376686" stop-color="#F7D449"/>
<stop offset="1" stop-color="#F9820F"/>
</linearGradient>
<linearGradient id="paint1_linear_5671_7314" x1="35.807" y1="-0.110657" x2="67.9179" y2="67.4347" gradientUnits="userSpaceOnUse">
<stop stop-color="#F9820F"/>
<stop offset="0.376686" stop-color="#F7D449"/>
<stop offset="1" stop-color="#F9820F"/>
</linearGradient>
<linearGradient id="paint2_linear_5671_7314" x1="35.807" y1="-0.110657" x2="67.9179" y2="67.4347" gradientUnits="userSpaceOnUse">
<stop stop-color="#F9820F"/>
<stop offset="0.376686" stop-color="#F7D449"/>
<stop offset="1" stop-color="#F9820F"/>
</linearGradient>
<linearGradient id="paint3_linear_5671_7314" x1="6.45651" y1="6.82584" x2="37.1262" y2="30.9944" gradientUnits="userSpaceOnUse">
<stop offset="0.339207" stop-color="#F7E152"/>
<stop offset="0.934499" stop-color="#F9820F"/>
</linearGradient>
<linearGradient id="paint4_linear_5671_7314" x1="20.975" y1="16.7001" x2="6.37871" y2="17.0919" gradientUnits="userSpaceOnUse">
<stop stop-color="#EAA200"/>
<stop offset="1" stop-color="#F5E157"/>
</linearGradient>
</defs>
</svg>
