<svg width="96" height="48" viewBox="0 0 96 48" fill="none" xmlns="http://www.w3.org/2000/svg">
<mask id="path-1-outside-1_2168_495" maskUnits="userSpaceOnUse" x="-0.499023" y="-0.226562" width="96" height="48" fill="black">
<rect fill="white" x="-0.499023" y="-0.226562" width="96" height="48"/>
<path d="M5.11523 43.7734L12.2272 8.15744L15.4192 11.8534H3.65923L5.11523 4.57343H22.0272L14.1872 43.7734H5.11523ZM35.0529 44.4454C32.1409 44.4454 29.4342 44.0534 26.9329 43.2694C24.4689 42.4854 22.3782 41.3654 20.6609 39.9094L25.0289 33.2454C26.2982 34.3654 27.8476 35.2428 29.6769 35.8774C31.5436 36.5121 33.5222 36.8294 35.6129 36.8294C38.3009 36.8294 40.3729 36.3254 41.8289 35.3174C43.2849 34.3094 44.0129 32.9094 44.0129 31.1174C44.0129 29.7361 43.4342 28.6534 42.2769 27.8694C41.1196 27.0481 39.1596 26.6374 36.3969 26.6374H25.7569L32.1409 4.57343H56.1089L54.5969 11.8534H33.9329L39.5329 7.70943L34.9409 23.4454L31.0209 19.3014H38.5249C43.4156 19.3014 47.0742 20.2534 49.5009 22.1574C51.9649 24.0614 53.1969 26.6934 53.1969 30.0534C53.1969 32.9654 52.4129 35.5041 50.8449 37.6694C49.3142 39.8348 47.1862 41.5148 44.4609 42.7094C41.7356 43.8668 38.5996 44.4454 35.0529 44.4454ZM71.8856 44.4454C68.9736 44.4454 66.4536 43.8668 64.3256 42.7094C62.2349 41.5148 60.6109 39.8161 59.4536 37.6134C58.2963 35.3734 57.7176 32.7041 57.7176 29.6054C57.7176 26.0588 58.2029 22.7361 59.1736 19.6374C60.1816 16.5388 61.5816 13.8134 63.3736 11.4614C65.1656 9.0721 67.3123 7.2241 69.8136 5.91743C72.3523 4.57344 75.1336 3.90144 78.1576 3.90144C81.0696 3.90144 83.5709 4.49877 85.6616 5.69344C87.7896 6.85077 89.4323 8.53077 90.5896 10.7334C91.7469 12.9361 92.3256 15.6054 92.3256 18.7414C92.3256 22.2881 91.8216 25.6108 90.8136 28.7094C89.8429 31.8081 88.4616 34.5521 86.6696 36.9414C84.8776 39.2934 82.7309 41.1414 80.2296 42.4854C77.7283 43.7921 74.9469 44.4454 71.8856 44.4454ZM72.7256 36.7734C74.4429 36.7734 75.9549 36.2134 77.2616 35.0934C78.5683 33.9361 79.6509 32.4428 80.5096 30.6134C81.4056 28.7841 82.0776 26.8428 82.5256 24.7894C82.9736 22.7361 83.1976 20.7948 83.1976 18.9654C83.1976 16.3894 82.6749 14.5228 81.6296 13.3654C80.5843 12.1708 79.1469 11.5734 77.3176 11.5734C75.6003 11.5734 74.0883 12.1521 72.7816 13.3094C71.4749 14.4294 70.3736 15.9041 69.4776 17.7334C68.6189 19.5628 67.9656 21.5041 67.5176 23.5574C67.0696 25.6108 66.8456 27.5521 66.8456 29.3814C66.8456 31.9201 67.3683 33.7868 68.4136 34.9814C69.4963 36.1761 70.9336 36.7734 72.7256 36.7734Z"/>
</mask>
<path d="M5.11523 43.7734L12.2272 8.15744L15.4192 11.8534H3.65923L5.11523 4.57343H22.0272L14.1872 43.7734H5.11523ZM35.0529 44.4454C32.1409 44.4454 29.4342 44.0534 26.9329 43.2694C24.4689 42.4854 22.3782 41.3654 20.6609 39.9094L25.0289 33.2454C26.2982 34.3654 27.8476 35.2428 29.6769 35.8774C31.5436 36.5121 33.5222 36.8294 35.6129 36.8294C38.3009 36.8294 40.3729 36.3254 41.8289 35.3174C43.2849 34.3094 44.0129 32.9094 44.0129 31.1174C44.0129 29.7361 43.4342 28.6534 42.2769 27.8694C41.1196 27.0481 39.1596 26.6374 36.3969 26.6374H25.7569L32.1409 4.57343H56.1089L54.5969 11.8534H33.9329L39.5329 7.70943L34.9409 23.4454L31.0209 19.3014H38.5249C43.4156 19.3014 47.0742 20.2534 49.5009 22.1574C51.9649 24.0614 53.1969 26.6934 53.1969 30.0534C53.1969 32.9654 52.4129 35.5041 50.8449 37.6694C49.3142 39.8348 47.1862 41.5148 44.4609 42.7094C41.7356 43.8668 38.5996 44.4454 35.0529 44.4454ZM71.8856 44.4454C68.9736 44.4454 66.4536 43.8668 64.3256 42.7094C62.2349 41.5148 60.6109 39.8161 59.4536 37.6134C58.2963 35.3734 57.7176 32.7041 57.7176 29.6054C57.7176 26.0588 58.2029 22.7361 59.1736 19.6374C60.1816 16.5388 61.5816 13.8134 63.3736 11.4614C65.1656 9.0721 67.3123 7.2241 69.8136 5.91743C72.3523 4.57344 75.1336 3.90144 78.1576 3.90144C81.0696 3.90144 83.5709 4.49877 85.6616 5.69344C87.7896 6.85077 89.4323 8.53077 90.5896 10.7334C91.7469 12.9361 92.3256 15.6054 92.3256 18.7414C92.3256 22.2881 91.8216 25.6108 90.8136 28.7094C89.8429 31.8081 88.4616 34.5521 86.6696 36.9414C84.8776 39.2934 82.7309 41.1414 80.2296 42.4854C77.7283 43.7921 74.9469 44.4454 71.8856 44.4454ZM72.7256 36.7734C74.4429 36.7734 75.9549 36.2134 77.2616 35.0934C78.5683 33.9361 79.6509 32.4428 80.5096 30.6134C81.4056 28.7841 82.0776 26.8428 82.5256 24.7894C82.9736 22.7361 83.1976 20.7948 83.1976 18.9654C83.1976 16.3894 82.6749 14.5228 81.6296 13.3654C80.5843 12.1708 79.1469 11.5734 77.3176 11.5734C75.6003 11.5734 74.0883 12.1521 72.7816 13.3094C71.4749 14.4294 70.3736 15.9041 69.4776 17.7334C68.6189 19.5628 67.9656 21.5041 67.5176 23.5574C67.0696 25.6108 66.8456 27.5521 66.8456 29.3814C66.8456 31.9201 67.3683 33.7868 68.4136 34.9814C69.4963 36.1761 70.9336 36.7734 72.7256 36.7734Z" fill="url(#paint0_linear_2168_495)"/>
<path d="M5.11523 43.7734L2.17331 43.186L1.45694 46.7734H5.11523V43.7734ZM12.2272 8.15744L14.4977 6.19658L10.4869 1.55251L9.28531 7.56998L12.2272 8.15744ZM15.4192 11.8534V14.8534H21.9741L17.6897 9.89257L15.4192 11.8534ZM3.65923 11.8534L0.717485 11.2651L-0.000185102 14.8534H3.65923V11.8534ZM5.11523 4.57343V1.57343H2.65582L2.17348 3.98509L5.11523 4.57343ZM22.0272 4.57343L24.969 5.16178L25.6866 1.57343H22.0272V4.57343ZM14.1872 43.7734V46.7734H16.6466L17.129 44.3618L14.1872 43.7734ZM5.11523 43.7734L8.05715 44.3609L15.1691 8.74489L12.2272 8.15744L9.28531 7.56998L2.17331 43.186L5.11523 43.7734ZM12.2272 8.15744L9.95676 10.1183L13.1488 13.8143L15.4192 11.8534L17.6897 9.89257L14.4977 6.19658L12.2272 8.15744ZM15.4192 11.8534V8.85343H3.65923V11.8534V14.8534H15.4192V11.8534ZM3.65923 11.8534L6.60097 12.4418L8.05697 5.16178L5.11523 4.57343L2.17348 3.98509L0.717485 11.2651L3.65923 11.8534ZM5.11523 4.57343V7.57343H22.0272V4.57343V1.57343H5.11523V4.57343ZM22.0272 4.57343L19.0855 3.98509L11.2455 43.1851L14.1872 43.7734L17.129 44.3618L24.969 5.16178L22.0272 4.57343ZM14.1872 43.7734V40.7734H5.11523V43.7734V46.7734H14.1872V43.7734ZM26.9329 43.2694L26.0233 46.1282L26.0357 46.1321L26.9329 43.2694ZM20.6609 39.9094L18.1519 38.2649L16.6981 40.4828L18.7209 42.1977L20.6609 39.9094ZM25.0289 33.2454L27.0138 30.9959L24.4178 28.7053L22.5199 31.6008L25.0289 33.2454ZM29.6769 35.8774L28.6936 38.7117L28.7024 38.7148L28.7112 38.7178L29.6769 35.8774ZM41.8289 35.3174L40.1213 32.8509V32.8509L41.8289 35.3174ZM42.2769 27.8694L40.5407 30.316L40.5673 30.3349L40.5944 30.3532L42.2769 27.8694ZM25.7569 26.6374L22.8751 25.8036L21.7658 29.6374H25.7569V26.6374ZM32.1409 4.57343V1.57343H29.8859L29.2591 3.73962L32.1409 4.57343ZM56.1089 4.57343L59.0462 5.18349L59.796 1.57343H56.1089V4.57343ZM54.5969 11.8534V14.8534H57.0379L57.5342 12.4635L54.5969 11.8534ZM33.9329 11.8534L32.1484 9.44191L24.8355 14.8534H33.9329V11.8534ZM39.5329 7.70943L42.4128 8.54983L44.9078 -4.19617e-05L37.7484 5.29791L39.5329 7.70943ZM34.9409 23.4454L32.7615 25.507L36.3557 29.3066L37.8208 24.2858L34.9409 23.4454ZM31.0209 19.3014V16.3014H24.0535L28.8415 21.363L31.0209 19.3014ZM49.5009 22.1574L47.6491 24.5177L47.6578 24.5245L47.6666 24.5313L49.5009 22.1574ZM50.8449 37.6694L48.4151 35.9099L48.4051 35.9238L48.3952 35.9377L50.8449 37.6694ZM44.4609 42.7094L45.6335 45.4708L45.6495 45.464L45.6653 45.457L44.4609 42.7094ZM35.0529 44.4454V41.4454C32.4118 41.4454 30.0109 41.0903 27.8302 40.4068L26.9329 43.2694L26.0357 46.1321C28.8576 47.0166 31.87 47.4454 35.0529 47.4454V44.4454ZM26.9329 43.2694L27.8425 40.4107C25.7007 39.7292 23.9743 38.7855 22.601 37.6212L20.6609 39.9094L18.7209 42.1977C20.7822 43.9453 23.2371 45.2417 26.0233 46.1282L26.9329 43.2694ZM20.6609 39.9094L23.17 41.554L27.538 34.89L25.0289 33.2454L22.5199 31.6008L18.1519 38.2649L20.6609 39.9094ZM25.0289 33.2454L23.0441 35.495C24.6451 36.9076 26.5482 37.9674 28.6936 38.7117L29.6769 35.8774L30.6602 33.0432C29.147 32.5182 27.9514 31.8233 27.0138 30.9959L25.0289 33.2454ZM29.6769 35.8774L28.7112 38.7178C30.9072 39.4644 33.2137 39.8294 35.6129 39.8294V36.8294V33.8294C33.8308 33.8294 32.18 33.5598 30.6426 33.0371L29.6769 35.8774ZM35.6129 36.8294V39.8294C38.6148 39.8294 41.3806 39.2766 43.5365 37.784L41.8289 35.3174L40.1213 32.8509C39.3652 33.3743 37.987 33.8294 35.6129 33.8294V36.8294ZM41.8289 35.3174L43.5365 37.784C45.8134 36.2077 47.0129 33.8798 47.0129 31.1174H44.0129H41.0129C41.0129 31.9391 40.7564 32.4112 40.1213 32.8509L41.8289 35.3174ZM44.0129 31.1174H47.0129C47.0129 28.7267 45.9289 26.7198 43.9595 25.3857L42.2769 27.8694L40.5944 30.3532C40.8263 30.5103 40.9034 30.628 40.9331 30.6836C40.9621 30.7377 41.0129 30.8575 41.0129 31.1174H44.0129ZM42.2769 27.8694L44.0132 25.4229C42.0555 24.0336 39.2854 23.6374 36.3969 23.6374V26.6374V29.6374C39.0337 29.6374 40.1836 30.0626 40.5407 30.316L42.2769 27.8694ZM36.3969 26.6374V23.6374H25.7569V26.6374V29.6374H36.3969V26.6374ZM25.7569 26.6374L28.6387 27.4713L35.0227 5.40725L32.1409 4.57343L29.2591 3.73962L22.8751 25.8036L25.7569 26.6374ZM32.1409 4.57343V7.57343H56.1089V4.57343V1.57343H32.1409V4.57343ZM56.1089 4.57343L53.1716 3.96338L51.6596 11.2434L54.5969 11.8534L57.5342 12.4635L59.0462 5.18349L56.1089 4.57343ZM54.5969 11.8534V8.85343H33.9329V11.8534V14.8534H54.5969V11.8534ZM33.9329 11.8534L35.7174 14.265L41.3174 10.121L39.5329 7.70943L37.7484 5.29791L32.1484 9.44191L33.9329 11.8534ZM39.5329 7.70943L36.653 6.86904L32.061 22.605L34.9409 23.4454L37.8208 24.2858L42.4128 8.54983L39.5329 7.70943ZM34.9409 23.4454L37.1203 21.3838L33.2003 17.2398L31.0209 19.3014L28.8415 21.363L32.7615 25.507L34.9409 23.4454ZM31.0209 19.3014V22.3014H38.5249V19.3014V16.3014H31.0209V19.3014ZM38.5249 19.3014V22.3014C43.1115 22.3014 45.981 23.2089 47.6491 24.5177L49.5009 22.1574L51.3528 19.7972C48.1675 17.298 43.7196 16.3014 38.5249 16.3014V19.3014ZM49.5009 22.1574L47.6666 24.5313C49.3308 25.8173 50.1969 27.5378 50.1969 30.0534H53.1969H56.1969C56.1969 25.8491 54.599 22.3056 51.3353 19.7836L49.5009 22.1574ZM53.1969 30.0534H50.1969C50.1969 32.3929 49.5791 34.3025 48.4151 35.9099L50.8449 37.6694L53.2747 39.429C55.2468 36.7057 56.1969 33.5379 56.1969 30.0534H53.1969ZM50.8449 37.6694L48.3952 35.9377C47.2167 37.6048 45.5447 38.9588 43.2565 39.9618L44.4609 42.7094L45.6653 45.457C48.8278 44.0707 51.4118 42.0648 53.2946 39.4011L50.8449 37.6694ZM44.4609 42.7094L43.2883 39.9481C40.9996 40.92 38.2748 41.4454 35.0529 41.4454V44.4454V47.4454C38.9244 47.4454 42.4716 46.8135 45.6335 45.4708L44.4609 42.7094ZM64.3256 42.7094L62.8372 45.3142L62.8646 45.3298L62.8923 45.3449L64.3256 42.7094ZM59.4536 37.6134L56.7883 38.9905L56.7931 38.9997L56.7979 39.0088L59.4536 37.6134ZM59.1736 19.6374L56.3208 18.7094L56.3157 18.725L56.3108 18.7406L59.1736 19.6374ZM63.3736 11.4614L65.7599 13.2796L65.7668 13.2705L65.7736 13.2614L63.3736 11.4614ZM69.8136 5.91743L71.2027 8.57648L71.21 8.57266L71.2173 8.5688L69.8136 5.91743ZM85.6616 5.69344L84.1732 8.29817L84.2006 8.31382L84.2283 8.32889L85.6616 5.69344ZM90.5896 10.7334L87.9339 12.1288L87.9339 12.1288L90.5896 10.7334ZM90.8136 28.7094L87.9608 27.7814L87.9557 27.797L87.9508 27.8126L90.8136 28.7094ZM86.6696 36.9414L89.0559 38.7596L89.0628 38.7505L89.0696 38.7414L86.6696 36.9414ZM80.2296 42.4854L81.6187 45.1445L81.6341 45.1364L81.6496 45.1281L80.2296 42.4854ZM77.2616 35.0934L79.214 37.3712L79.2325 37.3554L79.2507 37.3392L77.2616 35.0934ZM80.5096 30.6134L77.8154 29.2938L77.8045 29.3162L77.7939 29.3387L80.5096 30.6134ZM82.5256 24.7894L79.5946 24.1499V24.1499L82.5256 24.7894ZM81.6296 13.3654L79.3719 15.3409L79.3874 15.3587L79.4033 15.3763L81.6296 13.3654ZM72.7816 13.3094L74.734 15.5872L74.7525 15.5714L74.7707 15.5552L72.7816 13.3094ZM69.4776 17.7334L66.7834 16.4138L66.7725 16.4362L66.7619 16.4587L69.4776 17.7334ZM67.5176 23.5574L70.4486 24.1969V24.1969L67.5176 23.5574ZM68.4136 34.9814L66.1559 36.957L66.1731 36.9766L66.1906 36.996L68.4136 34.9814ZM71.8856 44.4454V41.4454C69.3736 41.4454 67.3663 40.9482 65.7589 40.074L64.3256 42.7094L62.8923 45.3449C65.5409 46.7854 68.5736 47.4454 71.8856 47.4454V44.4454ZM64.3256 42.7094L65.814 40.1047C64.2369 39.2035 63.0101 37.9324 62.1093 36.2181L59.4536 37.6134L56.7979 39.0088C58.2118 41.6998 60.233 43.826 62.8372 45.3142L64.3256 42.7094ZM59.4536 37.6134L62.1189 36.2364C61.2262 34.5087 60.7176 32.333 60.7176 29.6054H57.7176H54.7176C54.7176 33.0752 55.3663 36.2382 56.7883 38.9905L59.4536 37.6134ZM57.7176 29.6054H60.7176C60.7176 26.335 61.1647 23.3172 62.0364 20.5342L59.1736 19.6374L56.3108 18.7406C55.2412 22.155 54.7176 25.7825 54.7176 29.6054H57.7176ZM59.1736 19.6374L62.0265 20.5655C62.9407 17.755 64.1921 15.3373 65.7599 13.2796L63.3736 11.4614L60.9873 9.64331C58.9711 12.2896 57.4225 15.3225 56.3208 18.7094L59.1736 19.6374ZM63.3736 11.4614L65.7736 13.2614C67.313 11.2089 69.1212 9.6638 71.2027 8.57648L69.8136 5.91743L68.4245 3.25839C65.5033 4.7844 63.0182 6.93528 60.9736 9.66144L63.3736 11.4614ZM69.8136 5.91743L71.2173 8.5688C73.3005 7.4659 75.5963 6.90144 78.1576 6.90144V3.90144V0.901437C74.6709 0.901437 71.404 1.68098 68.4099 3.26607L69.8136 5.91743ZM78.1576 3.90144V6.90144C80.6566 6.90144 82.6219 7.41173 84.1732 8.29817L85.6616 5.69344L87.15 3.08871C84.52 1.58581 81.4826 0.901437 78.1576 0.901437V3.90144ZM85.6616 5.69344L84.2283 8.32889C85.8203 9.19474 87.0445 10.4361 87.9339 12.1288L90.5896 10.7334L93.2453 9.33805C91.8201 6.62541 89.7589 4.50679 87.0949 3.05798L85.6616 5.69344ZM90.5896 10.7334L87.9339 12.1288C88.8138 13.8035 89.3256 15.9678 89.3256 18.7414H92.3256H95.3256C95.3256 15.2431 94.6801 12.0687 93.2453 9.33805L90.5896 10.7334ZM92.3256 18.7414H89.3256C89.3256 22.0007 88.863 25.0077 87.9608 27.7814L90.8136 28.7094L93.6665 29.6375C94.7802 26.2138 95.3256 22.5755 95.3256 18.7414H92.3256ZM90.8136 28.7094L87.9508 27.8126C87.0731 30.6145 85.8401 33.0475 84.2696 35.1414L86.6696 36.9414L89.0696 38.7414C91.0832 36.0567 92.6128 33.0017 93.6764 29.6062L90.8136 28.7094ZM86.6696 36.9414L84.2833 35.1233C82.7399 37.1491 80.9181 38.7099 78.8097 39.8428L80.2296 42.4854L81.6496 45.1281C84.5438 43.573 87.0153 41.4378 89.0559 38.7596L86.6696 36.9414ZM80.2296 42.4854L78.8405 39.8264C76.8037 40.8904 74.5051 41.4454 71.8856 41.4454V44.4454V47.4454C75.3887 47.4454 78.6529 46.6938 81.6187 45.1445L80.2296 42.4854ZM72.7256 36.7734V39.7734C75.1607 39.7734 77.3649 38.9562 79.214 37.3712L77.2616 35.0934L75.3092 32.8157C74.545 33.4707 73.7251 33.7734 72.7256 33.7734V36.7734ZM77.2616 35.0934L79.2507 37.3392C80.9076 35.8717 82.2202 34.0294 83.2253 31.8882L80.5096 30.6134L77.7939 29.3387C77.0816 30.8561 76.2289 32.0005 75.2725 32.8477L77.2616 35.0934ZM80.5096 30.6134L83.2038 31.933C84.2091 29.8806 84.9589 27.7102 85.4566 25.4289L82.5256 24.7894L79.5946 24.1499C79.1963 25.9754 78.6021 27.6876 77.8154 29.2938L80.5096 30.6134ZM82.5256 24.7894L85.4566 25.4289C85.9439 23.1959 86.1976 21.0388 86.1976 18.9654H83.1976H80.1976C80.1976 20.5507 80.0033 22.2763 79.5946 24.1499L82.5256 24.7894ZM83.1976 18.9654H86.1976C86.1976 16.0995 85.6365 13.326 83.8559 11.3546L81.6296 13.3654L79.4033 15.3763C79.7133 15.7195 80.1976 16.6794 80.1976 18.9654H83.1976ZM81.6296 13.3654L83.8873 11.3899C82.1827 9.44182 79.866 8.57343 77.3176 8.57343V11.5734V14.5734C78.4279 14.5734 78.9858 14.8997 79.3719 15.3409L81.6296 13.3654ZM77.3176 11.5734V8.57343C74.8542 8.57343 72.6379 9.42918 70.7925 11.0637L72.7816 13.3094L74.7707 15.5552C75.5387 14.875 76.3463 14.5734 77.3176 14.5734V11.5734ZM72.7816 13.3094L70.8292 11.0317C69.1612 12.4614 67.8265 14.2842 66.7834 16.4138L69.4776 17.7334L72.1718 19.053C72.9207 17.524 73.7887 16.3975 74.734 15.5872L72.7816 13.3094ZM69.4776 17.7334L66.7619 16.4587C65.8042 18.499 65.0805 20.6542 64.5866 22.9179L67.5176 23.5574L70.4486 24.1969C70.8508 22.354 71.4337 20.6265 72.1933 19.0082L69.4776 17.7334ZM67.5176 23.5574L64.5866 22.9179C64.0993 25.151 63.8456 27.3081 63.8456 29.3814H66.8456H69.8456C69.8456 27.7961 70.0399 26.0706 70.4486 24.1969L67.5176 23.5574ZM66.8456 29.3814H63.8456C63.8456 32.2356 64.4171 34.9698 66.1559 36.957L68.4136 34.9814L70.6713 33.0059C70.3194 32.6037 69.8456 31.6046 69.8456 29.3814H66.8456ZM68.4136 34.9814L66.1906 36.996C67.9089 38.892 70.1918 39.7734 72.7256 39.7734V36.7734V33.7734C71.6754 33.7734 71.0836 33.4602 70.6366 32.9669L68.4136 34.9814Z" fill="#E10000" mask="url(#path-1-outside-1_2168_495)"/>
<defs>
<linearGradient id="paint0_linear_2168_495" x1="48.8049" y1="4.77344" x2="47.1719" y2="43.7166" gradientUnits="userSpaceOnUse">
<stop stop-color="#FFFE00"/>
<stop offset="0.331731" stop-color="#FFB900"/>
<stop offset="0.653846" stop-color="#FFFE00"/>
<stop offset="0.870192" stop-color="#FF9F00"/>
</linearGradient>
</defs>
</svg>
